<?xml version="1.0" encoding="UTF-8" standalone="no"?>
<svg
   width="14.147168"
   height="20.480019"
   viewBox="0 0 14.147168 20.480019"
   fill="none"
   version="1.1"
   id="svg42"
   sodipodi:docname="bmc.svg"
   inkscape:version="1.1.1 (1:1.1+202109281949+c3084ef5ed)"
   inkscape:export-filename="/mnt/Main_Storage/Git/simplytranslate_mobile/assets/about/bmc.png"
   inkscape:export-xdpi="356.24966"
   inkscape:export-ydpi="356.24966"
   xmlns:inkscape="http://www.inkscape.org/namespaces/inkscape"
   xmlns:sodipodi="http://sodipodi.sourceforge.net/DTD/sodipodi-0.dtd"
   xmlns="http://www.w3.org/2000/svg"
   xmlns:svg="http://www.w3.org/2000/svg">
  <defs
     id="defs46">
    <rect
       x="151.19633"
       y="-51.554054"
       width="326.65341"
       height="79.280602"
       id="rect2740" />
  </defs>
  <sodipodi:namedview
     id="namedview44"
     pagecolor="#505050"
     bordercolor="#ffffff"
     borderopacity="1"
     inkscape:pageshadow="0"
     inkscape:pageopacity="0"
     inkscape:pagecheckerboard="1"
     showgrid="false"
     inkscape:zoom="18.466055"
     inkscape:cx="11.724215"
     inkscape:cy="7.5002484"
     inkscape:window-width="1888"
     inkscape:window-height="1060"
     inkscape:window-x="32"
     inkscape:window-y="0"
     inkscape:window-maximized="1"
     inkscape:current-layer="svg42" />
  <path
     d="m 12.666558,4.76399 -0.01401,-0.0083 -0.03263,-0.0099 c 0.01318,0.01104 0.02949,0.01744 0.04664,0.0182 z"
     fill="#0d0c22"
     id="path4"
     style="stroke-width:1" />
  <path
     d="m 12.872572,6.227123 -0.01569,0.0044 z"
     fill="#0d0c22"
     id="path6"
     style="stroke-width:1" />
  <path
     d="m 12.672206,4.761564 c -0.0019,-2.3e-4 -0.0036,-6.48e-4 -0.0052,-0.0012 -2.09e-4,0.0012 -2.09e-4,0.0023 0,0.0035 0.0019,-2.51e-4 0.0036,-10e-4 0.0052,-0.0022 z"
     fill="#0d0c22"
     id="path8"
     style="stroke-width:1" />
  <path
     d="m 12.666768,4.764555 h 0.0027 v -0.0016 z"
     fill="#0d0c22"
     id="path10"
     style="stroke-width:1" />
  <path
     d="m 12.860023,6.224445 0.02363,-0.01349 0.0088,-0.005 0.0079,-0.0085 c -0.01485,0.0065 -0.02865,0.01562 -0.04037,0.027 z"
     fill="#0d0c22"
     id="path12"
     style="stroke-width:1" />
  <path
     d="m 12.706924,4.796095 -0.02322,-0.02204 -0.01569,-0.0085 c 0.0086,0.01489 0.02238,0.02587 0.0389,0.03058 z"
     fill="#0d0c22"
     id="path14"
     style="stroke-width:1" />
  <path
     d="m 6.8852462,18.993575 c -0.01851,0.0079 -0.0347,0.0205 -0.04712,0.03639 l 0.0146,-0.0094 c 0.0099,-0.009 0.02397,-0.01987 0.03252,-0.02698 z"
     fill="#0d0c22"
     id="path16"
     style="stroke-width:1" />
  <path
     d="m 10.266265,18.328477 c 0,-0.02091 -0.01021,-0.01715 -0.0077,0.05731 0,-0.0061 0.0025,-0.01213 0.0036,-0.01799 0.0014,-0.01318 0.0025,-0.02614 0.0041,-0.03932 z"
     fill="#0d0c22"
     id="path18"
     style="stroke-width:1" />
  <path
     d="m 9.9170892,18.993575 c -0.01849,0.0079 -0.03468,0.0205 -0.0471,0.03639 l 0.0146,-0.0094 c 0.0099,-0.009 0.02397,-0.01987 0.0325,-0.02698 z"
     fill="#0d0c22"
     id="path20"
     style="stroke-width:1" />
  <path
     d="m 4.5027102,19.151902 c -0.01403,-0.01213 -0.03123,-0.02029 -0.04959,-0.02322 0.01487,0.0073 0.02974,0.01443 0.03968,0.01987 z"
     fill="#0d0c22"
     id="path22"
     style="stroke-width:1" />
  <path
     d="m 3.9676612,18.638856 c -0.0022,-0.02175 -0.0088,-0.04267 -0.01955,-0.0617 0.0076,0.01966 0.01393,0.03995 0.01901,0.06065 z"
     fill="#0d0c22"
     id="path24"
     style="stroke-width:1" />
  <path
     d="m 7.5663862,9.460649 c -0.735645,0.314918 -1.570468,0.671979 -2.652424,0.671979 -0.452622,-8.99e-4 -0.903027,-0.063 -1.339022,-0.184596 l 0.748319,7.682929 c 0.02648,0.321045 0.172779,0.620549 0.409809,0.838692 0.23703,0.218353 0.547472,0.339451 0.869689,0.339242 0,0 1.061019,0.05522 1.415069,0.05522 0.38103,0 1.523618,-0.05522 1.523618,-0.05522 0.322155,0 0.632534,-0.121098 0.869522,-0.339242 0.236967,-0.218353 0.383226,-0.517647 0.409705,-0.838692 L 10.622156,9.141047 C 10.263986,9.018715 9.9025112,8.937439 9.4950032,8.937439 8.7902292,8.937167 8.2223862,9.179886 7.5663862,9.460649 Z"
     fill="#ffffff"
     id="path26"
     style="stroke-width:1;fill:#ffdd00;fill-opacity:1" />
  <path
     d="m 1.2600012,6.182929 0.01267,0.01184 0.0083,0.005 c -0.0064,-0.0063 -0.01338,-0.01196 -0.02094,-0.0168 z"
     fill="#0d0c22"
     id="path28"
     style="stroke-width:1" />
  <path
     d="M 14.08397,5.473849 13.971447,4.905462 C 13.870219,4.39547 13.640781,3.9135875 13.117277,3.7292633 12.949539,3.6703039 12.759003,3.6449548 12.630375,3.5229156 12.501748,3.4008555 12.463683,3.2113026 12.433983,3.0355117 12.378977,2.7128764 12.327107,2.3899692 12.270637,2.0678986 12.221905,1.7910045 12.183212,1.4799352 12.056258,1.2259221 11.891029,0.88481891 11.548022,0.68535221 11.206898,0.55337831 11.032049,0.48812341 10.853643,0.43292871 10.672603,0.38806591 9.8204202,0.16322931 8.9244412,0.08057311 8.0477242,0.03347241 c -1.052277,-0.05806 -2.107378,-0.040575 -3.157166,0.05235 -0.781365,0.071069 -1.604329,0.157051 -2.346855,0.427315 -0.271393,0.098928 -0.551027,0.2176628 -0.757396,0.427336 -0.253197,0.25761039 -0.335853,0.65602089 -0.150986,0.97725489 0.131431,0.2281412 0.35405,0.3893124 0.59016,0.4959372 0.307556,0.1373909 0.628748,0.2419242 0.958243,0.311885 0.91748,0.2027922 1.867754,0.2824157 2.805062,0.3162981 1.03887,0.041935 2.079435,0.00795 3.113349,-0.101668 0.255686,-0.028089 0.510912,-0.061804 0.765678,-0.1011033 C 10.167839,2.7930643 10.360425,2.4007191 10.271996,2.1274015 10.166187,1.8006459 9.8818682,1.6739008 9.5603202,1.7232185 c -0.04737,0.00745 -0.09449,0.014327 -0.141887,0.021229 l -0.03415,0.00496 c -0.108925,0.013762 -0.217851,0.026625 -0.326776,0.038567 -0.225004,0.024241 -0.450552,0.044089 -0.676664,0.059503 -0.506395,0.035263 -1.014191,0.051535 -1.521694,0.05235 -0.498677,0 -0.997647,-0.014055 -1.495237,-0.046829 -0.227033,-0.014892 -0.453501,-0.033799 -0.679425,-0.056763 -0.102776,-0.01075 -0.20526,-0.022044 -0.307764,-0.034719 l -0.09753,-0.012403 -0.02121,-0.00301 -0.101124,-0.01462 c -0.206641,-0.031122 -0.413281,-0.066949 -0.617705,-0.1102013 -0.02062,-0.00458 -0.03909,-0.016042 -0.05231,-0.032523 -0.01322,-0.016481 -0.02043,-0.036999 -0.02043,-0.058123 0,-0.021124 0.0072,-0.041621 0.02043,-0.058102 0.01322,-0.016481 0.03169,-0.027963 0.05231,-0.032544 h 0.0038 c 0.177171,-0.037752 0.355702,-0.069982 0.534776,-0.098091 0.05971,-0.00935 0.119592,-0.018552 0.179639,-0.027545 h 0.0017 c 0.112146,-0.00745 0.224836,-0.027545 0.336418,-0.040784 0.970834,-0.1009778 1.94744,-0.1354039 2.92298,-0.1030275 0.4736,0.013762 0.946949,0.0416 1.418353,0.089537 0.101396,0.010478 0.202249,0.021501 0.30308,0.033882 0.03857,0.00469 0.07743,0.010207 0.116267,0.014892 l 0.07824,0.011294 c 0.228141,0.033966 0.455069,0.07521 0.6808048,0.1237124 0.334494,0.072722 0.763943,0.096418 0.912858,0.4628706 0.04727,0.1162666 0.06881,0.2454797 0.09495,0.3675398 l 0.03346,0.1556497 c 8.37e-4,0.0028 0.0015,0.00567 0.0019,0.00855 0.07885,0.3673516 0.1577,0.7347033 0.236549,1.1020758 0.0059,0.027127 0.0061,0.055174 4.19e-4,0.082363 -0.0054,0.02719 -0.01652,0.052957 -0.03242,0.075671 -0.0159,0.022735 -0.03639,0.041935 -0.06003,0.056408 -0.02363,0.014473 -0.0502,0.023906 -0.07759,0.027733 h -0.0023 l -0.0481,0.00661 -0.04769,0.00634 c -0.151007,0.01966 -0.302222,0.038023 -0.453522,0.055111 -0.298102,0.033966 -0.596664,0.063372 -0.8957068,0.088157 -0.594196,0.049422 -1.189584,0.081841 -1.786186,0.097255 -0.303979,0.00809 -0.607874,0.011859 -0.911686,0.011294 -1.209244,-9.412e-4 -2.417443,-0.071216 -3.618656,-0.2104889 -0.13005,-0.015435 -0.260079,-0.031958 -0.390128,-0.048774 0.100831,0.012967 -0.07329,-0.00991 -0.108549,-0.014871 -0.08266,-0.011566 -0.165313,-0.023592 -0.247969,-0.036099 -0.277459,-0.0416 -0.553244,-0.092842 -0.830138,-0.1377464 -0.334767,-0.055111 -0.654913,-0.027545 -0.95769997,0.1377464 -0.248554,0.1360105 -0.449715,0.3445961 -0.576669,0.5978769 -0.130594,0.270013 -0.169433,0.563995 -0.227849,0.854107 -0.05842,0.290134 -0.149333,0.60229 -0.114886,0.900121 0.0741,0.642781 0.523483,1.165176 1.16984097,1.281986 0.608063,0.110202 1.219451,0.199488 1.83247,0.275514 2.408115,0.294944 4.840952,0.330228 7.2565968,0.105266 0.196726,-0.01838 0.393181,-0.0384 0.58926,-0.06007 0.06128,-0.0067 0.123399,3.13e-4 0.181542,0.02066 0.05814,0.02033 0.111059,0.05342 0.154772,0.09684 0.04371,0.04344 0.07738,0.0961 0.09809,0.154144 0.02071,0.05804 0.02823,0.11999 0.02196,0.181312 l -0.06128,0.594552 c -0.12319,1.201443 -0.246379,2.402803 -0.369569,3.604058 -0.128627,1.261511 -0.258071,2.522938 -0.388288,3.784156 -0.03675,0.355347 -0.07347,0.710484 -0.110222,1.065621 -0.03526,0.34949 -0.04022,0.710275 -0.106625,1.055791 -0.104679,0.543164 -0.4725118,0.876967 -1.0092128,0.998902 -0.491712,0.111896 -0.994008,0.170667 -1.498269,0.175268 -0.559017,0.0029 -1.117783,-0.02175 -1.6768,-0.01882 -0.596769,0.0033 -1.327728,-0.05166 -1.788403,-0.495896 -0.404726,-0.390065 -0.460653,-1.000993 -0.515764,-1.529098 -0.07348,-0.699189 -0.146301,-1.398379 -0.218479,-2.097569 L 3.1641742,11.394751 2.9021502,8.87953 c -0.0044,-0.0416 -0.0088,-0.08266 -0.01295,-0.124528 -0.03139,-0.300026 -0.243828,-0.593736 -0.578573,-0.578593 -0.286557,0.01267 -0.612204,0.25623 -0.578593,0.578593 l 0.194238,1.864701 0.401694,3.857276 c 0.114447,1.095717 0.228601,2.191456 0.342483,3.287404 0.02205,0.209987 0.04271,0.420601 0.06584,0.630379 0.125908,1.147398 1.00206,1.765647 2.087048,1.93966 0.633705,0.102065 1.282824,0.12298 1.925877,0.133438 0.824345,0.01318 1.656973,0.04497 2.467828,-0.104366 1.2015268,-0.220445 2.1030068,-1.022745 2.2316338,-2.267399 0.03681,-0.359111 0.07362,-0.71864 0.110222,-1.077961 0.122144,-1.18881 0.244079,-2.377683 0.366013,-3.56664 l 0.398223,-3.884821 0.182797,-1.780392 c 0.009,-0.08828 0.04643,-0.171294 0.106248,-0.236737 0.06003,-0.06544 0.139504,-0.109867 0.22651,-0.126662 0.343634,-0.06697 0.672,-0.181291 0.916497,-0.442771 0.38902,-0.416314 0.466405,-0.95908 0.328784,-1.506259 z M 1.1597762,5.857933 c 0.0052,-0.0025 -0.0044,0.04242 -0.0085,0.06337 -8.37e-4,-0.03169 8.16e-4,-0.0598 0.0085,-0.06337 z m 0.03334,0.257882 c 0.0028,-0.0019 0.01102,0.0091 0.01956,0.02232 -0.01295,-0.01213 -0.02121,-0.02121 -0.01983,-0.02232 z m 0.0328,0.04325 c 0.01184,0.02012 0.01817,0.0328 0,0 z m 0.06584,0.05346 h 0.0017 c 0,0.0019 0.003,0.0038 0.0041,0.0058 -0.0018,-0.0021 -0.0039,-0.0041 -0.0061,-0.0058 z M 12.8228,6.132605 C 12.699401,6.24998 12.513257,6.304547 12.329623,6.33182 10.268698,6.63764 8.1777802,6.792474 6.0943082,6.724145 4.6032122,6.673175 3.1278032,6.50759 1.6515782,6.299026 1.5069302,6.278636 1.3501722,6.252196 1.2507002,6.145572 c -0.187357,-0.20114 -0.09533,-0.606159 -0.04656,-0.84915 0.04463,-0.22262 0.13005,-0.519362 0.394813,-0.551049 0.413281,-0.04848 0.893239,0.125909 1.302107,0.187901 0.492257,0.07513 0.986353,0.135278 1.482291,0.180476 2.116517,0.192857 4.268591,0.162823 6.3757588,-0.119299 0.384,-0.05162 0.766746,-0.111582 1.148027,-0.179912 0.339869,-0.0609 0.716339,-0.175226 0.921725,0.176607 0.140758,0.239686 0.159373,0.560397 0.137621,0.831226 -0.0067,0.118003 -0.05814,0.228999 -0.144105,0.310233 z"
     fill="#0d0c22"
     id="path30"
     style="stroke-width:1;fill:#000000;fill-opacity:1" />
</svg>
