<?xml version="1.0" encoding="UTF-8" standalone="no"?>
<svg
   width="12.428605"
   height="15.997355"
   version="1.1"
   id="svg13"
   sodipodi:docname="liberapay.svg"
   inkscape:version="1.1.1 (1:1.1+202109281949+c3084ef5ed)"
   inkscape:export-filename="/mnt/Main_Storage/Git/simplytranslate_mobile/assets/about/liberapay.png"
   inkscape:export-xdpi="456.07538"
   inkscape:export-ydpi="456.07538"
   xmlns:inkscape="http://www.inkscape.org/namespaces/inkscape"
   xmlns:sodipodi="http://sodipodi.sourceforge.net/DTD/sodipodi-0.dtd"
   xmlns="http://www.w3.org/2000/svg"
   xmlns:svg="http://www.w3.org/2000/svg">
  <defs
     id="defs17" />
  <sodipodi:namedview
     id="namedview15"
     pagecolor="#505050"
     bordercolor="#ffffff"
     borderopacity="1"
     inkscape:pageshadow="0"
     inkscape:pageopacity="0"
     inkscape:pagecheckerboard="1"
     showgrid="false"
     showguides="false"
     inkscape:zoom="30.313253"
     inkscape:cx="-1.1051272"
     inkscape:cy="9.9791335"
     inkscape:window-width="1888"
     inkscape:window-height="1060"
     inkscape:window-x="32"
     inkscape:window-y="0"
     inkscape:window-maximized="1"
     inkscape:current-layer="svg13" />
  <path
     d="m 3.1046885,13.083366 c -0.788083,0 -1.406456,-0.102842 -1.856,-0.308083 C 0.79914347,12.570042 0.47737747,12.289986 0.28317047,11.934676 0.08896347,11.579586 -0.00549153,11.171752 2.4646952e-4,10.711173 0.00574647,10.250814 0.06932647,9.7597789 0.19180547,9.2380689 L 2.3057915,0.3994483 4.8856535,0 2.5719435,9.5867589 c -0.04458,0.199724 -0.0693,0.382896 -0.07481,0.5492961 -0.0057,0.1664 0.02494,0.3136 0.09159,0.441159 0.06665,0.127779 0.180304,0.2304 0.341186,0.307862 0.160883,0.0779 0.385545,0.127779 0.674207,0.149848 l -0.49942,2.047559"
     id="path3"
     style="fill:#000000;stroke-width:0.22069;fill-opacity:1" />
  <path
     d="m 12.426619,7.5749519 c 0,0.810152 -0.133297,1.551448 -0.399669,2.222345 -0.266373,0.6715581 -0.635366,1.2510891 -1.105655,1.7392551 -0.471835,0.488386 -1.0376825,0.868414 -1.6977655,1.140303 -0.660303,0.271669 -1.378869,0.407835 -2.155476,0.407835 -0.377379,0 -0.754758,-0.03332 -1.131917,-0.09997 l -0.749021,3.012635 H 2.7237775 L 5.4868125,4.4795619 c 0.443586,-0.133076 0.951393,-0.252249 1.522979,-0.357959 0.571366,-0.105269 1.190179,-0.158014 1.856,-0.158014 0.621241,0 1.1568545,0.09446 1.6061785,0.282924 0.449545,0.18869 0.818318,0.446676 1.107862,0.773959 0.288442,0.327504 0.501849,0.7104 0.640883,1.14869 0.138373,0.43851 0.20789,0.907034 0.20789,1.406455 M 6.3865635,10.9877 c 0.188469,0.04458 0.421518,0.06665 0.698925,0.06665 0.432772,0 0.826703,-0.08033 1.181793,-0.241435 0.355089,-0.160662 0.657434,-0.385544 0.907255,-0.674206 0.2496,-0.2884421 0.443586,-0.6349251 0.582621,-1.0403311 0.138593,-0.404966 0.20811,-0.851421 0.20811,-1.339807 0,-0.476911 -0.10571,-0.882318 -0.316248,-1.215118 -0.21098,-0.3328 -0.577104,-0.49942 -1.098593,-0.49942 -0.355311,0 -0.688111,0.03332 -0.998621,0.09997 L 6.3865635,10.9877"
     id="path5"
     style="fill:#000000;stroke-width:0.22069;fill-opacity:1" />
</svg>
