<?xml version="1.0" encoding="UTF-8" standalone="no"?>
<!-- Created with Inkscape (http://www.inkscape.org/) -->

<svg
   width="411.00098"
   height="683"
   viewBox="0 0 108.74401 180.71042"
   version="1.1"
   id="svg5"
   inkscape:version="1.1 (1:1.1+202105261517+ce6663b3b7)"
   sodipodi:docname="dark-theme.1.svg"
   inkscape:export-filename="/home/esmail/Desktop/dark-theme.1.png"
   inkscape:export-xdpi="252.26277"
   inkscape:export-ydpi="252.26277"
   xmlns:inkscape="http://www.inkscape.org/namespaces/inkscape"
   xmlns:sodipodi="http://sodipodi.sourceforge.net/DTD/sodipodi-0.dtd"
   xmlns="http://www.w3.org/2000/svg"
   xmlns:svg="http://www.w3.org/2000/svg">
  <sodipodi:namedview
     id="namedview7"
     pagecolor="#505050"
     bordercolor="#ffffff"
     borderopacity="1"
     inkscape:pageshadow="0"
     inkscape:pageopacity="0"
     inkscape:pagecheckerboard="1"
     inkscape:document-units="mm"
     showgrid="false"
     units="px"
     inkscape:zoom="0.5"
     inkscape:cx="-335"
     inkscape:cy="111"
     inkscape:window-width="1888"
     inkscape:window-height="1060"
     inkscape:window-x="32"
     inkscape:window-y="0"
     inkscape:window-maximized="1"
     inkscape:current-layer="layer1"
     showborder="false" />
  <defs
     id="defs2">
    <rect
       x="30.770824"
       y="198.16411"
       width="249.8591"
       height="40.617489"
       id="rect46312" />
    <rect
       x="273.24493"
       y="71.388313"
       width="295.39993"
       height="68.926643"
       id="rect14019" />
    <rect
       x="-7.3849978"
       y="-9.8466635"
       width="1115.1346"
       height="320.01657"
       id="rect3356" />
    <filter
       style="color-interpolation-filters:sRGB;"
       inkscape:label="Drop Shadow"
       id="filter115572"
       x="-0.0066210703"
       y="-0.031642554"
       width="1.0132421"
       height="1.0764695">
      <feFlood
         flood-opacity="0.439216"
         flood-color="rgb(0,0,0)"
         result="flood"
         id="feFlood115562" />
      <feComposite
         in="flood"
         in2="SourceGraphic"
         operator="in"
         result="composite1"
         id="feComposite115564" />
      <feGaussianBlur
         in="composite1"
         stdDeviation="0.3"
         result="blur"
         id="feGaussianBlur115566" />
      <feOffset
         dx="0"
         dy="0.3"
         result="offset"
         id="feOffset115568" />
      <feComposite
         in="SourceGraphic"
         in2="offset"
         operator="over"
         result="composite2"
         id="feComposite115570" />
    </filter>
  </defs>
  <g
     inkscape:label="Layer 1"
     inkscape:groupmode="layer"
     id="layer1">
    <rect
       style="fill:#ffffff;fill-opacity:1;stroke:none;stroke-width:3.96899;stroke-linecap:round"
       id="rect27208"
       width="103.45209"
       height="150.54791"
       x="2.6458311"
       y="30.1625" />
    <rect
       style="fill:#121212;fill-opacity:1;stroke:none;stroke-width:3.96899;stroke-linecap:round"
       id="rect27116"
       width="108.74375"
       height="150.54791"
       x="-2.7020772e-06"
       y="30.1625" />
    <rect
       style="fill:none;fill-opacity:1;stroke:#ffffff;stroke-width:0.396875;stroke-linecap:round;stroke-miterlimit:4;stroke-dasharray:none;stroke-opacity:0.12"
       id="rect6030"
       width="102.926"
       height="53.963554"
       x="2.9090645"
       y="48.594597"
       rx="0.52916664"
       ry="0.52916664" />
    <rect
       style="fill:#345b34;fill-opacity:1;stroke:none;stroke-width:9.50348;stroke-linecap:round;filter:url(#filter115572)"
       id="rect24980"
       width="108.74375"
       height="22.754169"
       x="-1.7629394e-06"
       y="7.4083328" />
    <text
       xml:space="preserve"
       transform="scale(0.26458333)"
       id="text3354"
       style="font-style:normal;font-weight:normal;font-size:40px;line-height:1.25;font-family:sans-serif;white-space:pre;shape-inside:url(#rect3356);fill:#000000;fill-opacity:1;stroke:none" />
    <rect
       style="fill:none;fill-opacity:1;stroke:none;stroke-width:3.96898;stroke-linecap:round"
       id="rect5670"
       width="108.74375"
       height="30.1625"
       x="0"
       y="0" />
    <text
       xml:space="preserve"
       transform="scale(0.26458333)"
       id="text14017"
       style="font-style:normal;font-weight:normal;font-size:40px;line-height:1.25;font-family:sans-serif;white-space:pre;shape-inside:url(#rect14019);fill:#000000;fill-opacity:1;stroke:none" />
    <rect
       style="fill:#3fb274;fill-opacity:1;stroke:none;stroke-width:3.96898;stroke-linecap:round"
       id="rect22975"
       width="108.744"
       height="14.816667"
       x="0"
       y="-45.508335" />
    <text
       xml:space="preserve"
       style="font-style:normal;font-variant:normal;font-weight:normal;font-stretch:normal;font-size:6.52851px;line-height:1.25;font-family:Roboto;-inkscape-font-specification:Roboto;fill:#ffffff;fill-opacity:1;stroke:none;stroke-width:0.264583"
       x="3.9956009"
       y="16.568335"
       id="text17501"><tspan
         sodipodi:role="line"
         id="tspan17499"
         style="font-style:normal;font-variant:normal;font-weight:normal;font-stretch:normal;font-size:6.52851px;font-family:Roboto;-inkscape-font-specification:Roboto;fill:#ffffff;stroke-width:0.264583"
         x="3.9956009"
         y="16.568335">SimplyTranslate</tspan></text>
    <rect
       style="fill:none;fill-opacity:1;stroke:none;stroke-width:3.96898;stroke-linecap:round"
       id="rect23498"
       width="108.74375"
       height="7.9375"
       x="0"
       y="22.225" />
    <rect
       style="fill:#3fb274;fill-opacity:1;stroke:none;stroke-width:3.96898;stroke-linecap:round"
       id="rect25036"
       width="54.371876"
       height="7.9375"
       x="54.371876"
       y="-30.691664" />
    <rect
       style="fill:#1f1f1f;fill-opacity:1;stroke:none;stroke-width:0.26458332;stroke-linecap:round;stroke-miterlimit:4;stroke-dasharray:none;stroke-opacity:1"
       id="rect27034"
       width="38.364586"
       height="10.31875"
       x="2.9104149"
       y="35.171051"
       rx="0.52916664"
       ry="0.52916664" />
    <rect
       style="fill:#1f1f1f;fill-opacity:1;stroke:none;stroke-width:0.26458333;stroke-linecap:round;stroke-miterlimit:4;stroke-dasharray:none;stroke-opacity:1"
       id="rect27256"
       width="38.364586"
       height="10.31875"
       x="67.46875"
       y="35.171051"
       rx="0.52916664"
       ry="0.52916664" />
    <rect
       style="fill:#1f1f1f;fill-opacity:1;stroke:none;stroke-width:0.26458333;stroke-linecap:round;stroke-miterlimit:4;stroke-dasharray:none;stroke-opacity:1"
       id="rect27370"
       width="19.84375"
       height="10.31875"
       x="44.450001"
       y="35.171051"
       rx="0.52916664"
       ry="0.52916664" />
    <rect
       style="fill:none;fill-opacity:1;stroke:none;stroke-width:0.529167;stroke-linecap:round;stroke-miterlimit:4;stroke-dasharray:none"
       id="rect29686"
       width="33.602085"
       height="9.0378017"
       x="5.2916656"
       y="35.811523" />
    <text
       xml:space="preserve"
       style="font-style:normal;font-variant:normal;font-weight:normal;font-stretch:normal;font-size:5.96082px;line-height:1.25;font-family:Roboto;-inkscape-font-specification:Roboto;fill:#ffffff;fill-opacity:1;stroke:none;stroke-width:0.264584"
       x="4.8026919"
       y="42.460953"
       id="text29604"><tspan
         sodipodi:role="line"
         id="tspan29602"
         style="font-style:normal;font-variant:normal;font-weight:normal;font-stretch:normal;font-family:Roboto;-inkscape-font-specification:Roboto;fill:#ffffff;fill-opacity:1;stroke-width:0.264584"
         x="4.8026919"
         y="42.460953">English</tspan></text>
    <rect
       style="fill:none;fill-opacity:1;stroke:none;stroke-width:0.529167;stroke-linecap:round;stroke-miterlimit:4;stroke-dasharray:none"
       id="rect29808"
       width="33.602085"
       height="9.0378017"
       x="69.849998"
       y="35.811523" />
    <text
       xml:space="preserve"
       style="font-style:normal;font-variant:normal;font-weight:normal;font-stretch:normal;font-size:5.96082px;line-height:1.25;font-family:Roboto;-inkscape-font-specification:Roboto;fill:#ffffff;fill-opacity:1;stroke:none;stroke-width:0.264584"
       x="69.838356"
       y="42.460953"
       id="text29806"><tspan
         sodipodi:role="line"
         id="tspan29804"
         style="font-style:normal;font-variant:normal;font-weight:normal;font-stretch:normal;font-family:Roboto;-inkscape-font-specification:Roboto;fill:#ffffff;fill-opacity:1;stroke-width:0.264584"
         x="69.838356"
         y="42.460953">Arabic</tspan></text>
    <text
       xml:space="preserve"
       style="font-style:normal;font-variant:normal;font-weight:normal;font-stretch:normal;font-size:5.96082px;line-height:1.25;font-family:Roboto;-inkscape-font-specification:Roboto;fill:#ffffff;fill-opacity:1;stroke:none;stroke-width:0.264584"
       x="50.492104"
       y="42.137882"
       id="text33766"><tspan
         sodipodi:role="line"
         id="tspan33764"
         style="font-style:normal;font-variant:normal;font-weight:normal;font-stretch:normal;font-family:Roboto;-inkscape-font-specification:Roboto;fill:#ffffff;fill-opacity:1;stroke-width:0.264584"
         x="50.492104"
         y="42.137882">&lt;-&gt;</tspan></text>
    <rect
       style="fill:#345b34;fill-opacity:1;stroke:none;stroke-width:0.52916667;stroke-linecap:round;stroke-opacity:1;stroke-miterlimit:4;stroke-dasharray:none"
       id="rect39285"
       width="24.341667"
       height="9.260416"
       x="81.756241"
       y="160.9045"
       rx="0.52916664"
       ry="0.52916664" />
    <text
       xml:space="preserve"
       style="font-style:normal;font-variant:normal;font-weight:normal;font-stretch:normal;font-size:4.61191px;line-height:1.25;font-family:Roboto;-inkscape-font-specification:Roboto;fill:#ffffff;fill-opacity:1;stroke:none;stroke-width:0.264584"
       x="84.424019"
       y="167.24165"
       id="text43237"><tspan
         sodipodi:role="line"
         id="tspan43235"
         style="font-style:normal;font-variant:normal;font-weight:normal;font-stretch:normal;font-family:Roboto;-inkscape-font-specification:Roboto;fill:#ffffff;fill-opacity:1;stroke-width:0.264584"
         x="84.424019"
         y="167.24165">Translate</tspan></text>
    <text
       xml:space="preserve"
       transform="scale(0.26458333)"
       id="text46310"
       style="font-style:normal;font-weight:normal;font-size:40px;line-height:1.25;font-family:sans-serif;white-space:pre;shape-inside:url(#rect46312);fill:#000000;fill-opacity:1;stroke:none" />
    <rect
       style="fill:none;fill-opacity:1;stroke:none;stroke-width:3.96899;stroke-linecap:round"
       id="rect47939"
       width="12.7"
       height="54.239582"
       x="93.397911"
       y="48.456585" />
    <rect
       style="fill:none;fill-opacity:1;stroke:none;stroke-width:3.96899;stroke-linecap:round"
       id="rect48026"
       width="85.460419"
       height="54.239582"
       x="4.7624998"
       y="48.456585" />
    <rect
       style="fill:none;fill-opacity:1;stroke:none;stroke-width:3.96899;stroke-linecap:round"
       id="rect48114"
       width="12.7"
       height="52.916668"
       x="93.397911"
       y="105.342" />
    <rect
       style="fill:none;fill-opacity:1;stroke:none;stroke-width:3.96899;stroke-linecap:round"
       id="rect48116"
       width="85.460419"
       height="52.916668"
       x="4.7624998"
       y="105.342" />
    <rect
       style="fill:none;fill-opacity:1;stroke:none;stroke-width:3.96899;stroke-linecap:round"
       id="rect48208"
       width="85.460419"
       height="50.006248"
       x="4.7624998"
       y="50.57325" />
    <text
       xml:space="preserve"
       style="font-style:normal;font-variant:normal;font-weight:normal;font-stretch:normal;font-size:5.96082px;line-height:1.25;font-family:Roboto;-inkscape-font-specification:Roboto;fill:#2e2e2e;fill-opacity:1;stroke:none;stroke-width:0.264584"
       x="4.2706156"
       y="55.043865"
       id="text47234"><tspan
         sodipodi:role="line"
         id="tspan47232"
         style="font-style:normal;font-variant:normal;font-weight:normal;font-stretch:normal;font-family:Roboto;-inkscape-font-specification:Roboto;fill:#2e2e2e;fill-opacity:1;stroke-width:0.264584"
         x="4.2706156"
         y="55.043865">Enter text here</tspan></text>
    <rect
       style="fill:none;fill-opacity:1;stroke:none;stroke-width:3.96898;stroke-linecap:round"
       id="rect48385"
       width="12.7"
       height="12.7"
       x="93.397911"
       y="48.456585" />
    <rect
       style="fill:none;fill-opacity:1;stroke:none;stroke-width:3.96898;stroke-linecap:round"
       id="rect48387"
       width="12.7"
       height="12.7"
       x="93.397911"
       y="61.156586" />
    <rect
       style="fill:none;fill-opacity:1;stroke:none;stroke-width:3.96898;stroke-linecap:round"
       id="rect48389"
       width="12.7"
       height="12.7"
       x="93.397911"
       y="73.856583" />
    <rect
       style="fill:none;fill-opacity:1;stroke:none;stroke-width:3.96898;stroke-linecap:round"
       id="rect48481"
       width="12.7"
       height="12.7"
       x="93.397911"
       y="105.342" />
    <rect
       style="fill:none;fill-opacity:1;stroke:none;stroke-width:3.96898;stroke-linecap:round"
       id="rect48483"
       width="12.7"
       height="12.7"
       x="93.397911"
       y="118.04201" />
    <rect
       style="fill:none;fill-opacity:1;stroke:none;stroke-width:3.96898;stroke-linecap:round"
       id="rect48485"
       width="12.7"
       height="12.7"
       x="93.397911"
       y="130.742" />
    <rect
       style="fill:none;fill-opacity:1;stroke:none;stroke-width:3.96898;stroke-linecap:round"
       id="rect48506"
       width="12.7"
       height="12.7"
       x="93.397911"
       y="143.442" />
    <g
       style="fill:#000000;stroke-width:0.75"
       id="g1074"
       transform="matrix(0.35277778,0,0,0.35277778,95.514578,50.573251)">
      <path
         d="M 0,0 H 24 V 24 H 0 Z"
         fill="none"
         id="path1062"
         style="stroke-width:0.375" />
      <path
         d="M 19,6.41 17.59,5 12,10.59 6.41,5 5,6.41 10.59,12 5,17.59 6.41,19 12,13.41 17.59,19 19,17.59 13.41,12 Z"
         id="path1064"
         style="fill:#2e2e2e;fill-opacity:1;stroke-width:0.75" />
    </g>
    <g
       style="fill:#000000;stroke-width:0.75"
       id="g1088"
       transform="matrix(0.35277778,0,0,0.35277778,95.514578,63.273252)">
      <path
         d="M 0,0 H 24 V 24 H 0 Z"
         fill="none"
         id="path1076"
         style="stroke-width:0.375" />
      <path
         d="M 16,1 H 4 C 2.9,1 2,1.9 2,3 V 17 H 4 V 3 h 12 z m 3,4 H 8 C 6.9,5 6,5.9 6,7 v 14 c 0,1.1 0.9,2 2,2 h 11 c 1.1,0 2,-0.9 2,-2 V 7 C 21,5.9 20.1,5 19,5 Z m 0,16 H 8 V 7 h 11 z"
         id="path1078"
         style="fill:#2e2e2e;fill-opacity:1;stroke-width:0.75" />
    </g>
    <g
       style="fill:#000000;stroke-width:0.75"
       id="g1165"
       transform="matrix(0.35277778,0,0,0.35277778,95.514578,75.973249)">
      <path
         d="M 0,0 H 24 V 24 H 0 Z"
         fill="none"
         id="path1153"
         style="stroke-width:0.5625" />
      <path
         d="M 19,2 H 14.82 C 14.4,0.84 13.3,0 12,0 10.7,0 9.6,0.84 9.18,2 H 5 C 3.9,2 3,2.9 3,4 v 16 c 0,1.1 0.9,2 2,2 h 14 c 1.1,0 2,-0.9 2,-2 V 4 C 21,2.9 20.1,2 19,2 Z m -7,0 c 0.55,0 1,0.45 1,1 0,0.55 -0.45,1 -1,1 -0.55,0 -1,-0.45 -1,-1 0,-0.55 0.45,-1 1,-1 z m 7,18 H 5 V 4 H 7 V 7 H 17 V 4 h 2 z"
         id="path1155"
         style="fill:#345b34;fill-opacity:1;stroke-width:0.75" />
    </g>
    <rect
       style="fill:none;fill-opacity:1;stroke:#2e2e2e;stroke-width:0.264583;stroke-linecap:round;stroke-miterlimit:4;stroke-dasharray:none;stroke-opacity:1"
       id="rect5974"
       width="102.428"
       height="52.392738"
       x="3.1579697"
       y="105.60397"
       rx="0.52916664"
       ry="0.52916664" />
    <g
       style="fill:#000000;stroke-width:0.75"
       id="g1237"
       transform="matrix(0.35277778,0,0,0.35277778,95.514578,107.45867)">
      <path
         d="M 0,0 H 24 V 24 H 0 Z"
         fill="none"
         id="path1233"
         style="stroke-width:0.375" />
      <path
         d="M 16,1 H 4 C 2.9,1 2,1.9 2,3 V 17 H 4 V 3 h 12 z m 3,4 H 8 C 6.9,5 6,5.9 6,7 v 14 c 0,1.1 0.9,2 2,2 h 11 c 1.1,0 2,-0.9 2,-2 V 7 C 21,5.9 20.1,5 19,5 Z m 0,16 H 8 V 7 h 11 z"
         id="path1235"
         style="fill:#2e2e2e;fill-opacity:1;stroke-width:0.75" />
    </g>
    <g
       style="fill:#000000;stroke-width:0.75"
       id="g1251"
       transform="matrix(0.35277778,0,0,0.35277778,95.514578,120.15867)">
      <path
         d="M 0,0 H 24 V 24 H 0 Z"
         fill="none"
         id="path1239"
         style="stroke-width:0.5625" />
      <path
         d="M 7,14 H 5 v 5 h 5 V 17 H 7 Z M 5,10 H 7 V 7 h 3 V 5 H 5 Z m 12,7 h -3 v 2 h 5 V 14 H 17 Z M 14,5 v 2 h 3 v 3 h 2 V 5 Z"
         id="path1241"
         style="fill:#2e2e2e;fill-opacity:1;stroke-width:0.75" />
    </g>
    <g
       style="fill:#000000;stroke-width:0.75"
       id="g1265"
       transform="matrix(0.35277778,0,0,0.35277778,95.514578,132.85867)">
      <path
         d="M 0,0 H 24 V 24 H 0 Z"
         fill="none"
         id="path1253"
         style="stroke-width:0.5625" />
      <path
         d="m 19,13 h -6 v 6 H 11 V 13 H 5 v -2 h 6 V 5 h 2 v 6 h 6 z"
         id="path1255"
         style="fill:#2e2e2e;fill-opacity:1;stroke-width:0.75" />
    </g>
    <g
       style="fill:#000000;stroke-width:0.75"
       id="g1279"
       transform="matrix(0.35277778,0,0,0.35277778,95.514578,145.55867)">
      <path
         d="M 0,0 H 24 V 24 H 0 Z"
         fill="none"
         id="path1267"
         style="stroke-width:0.5625" />
      <path
         d="M 19,13 H 5 v -2 h 14 z"
         id="path1269"
         style="fill:#2e2e2e;fill-opacity:1;stroke-width:0.75" />
    </g>
    <rect
       style="fill:none;fill-opacity:1;stroke:none;stroke-width:3.96898;stroke-linecap:round"
       id="rect2170"
       width="14.816667"
       height="14.816667"
       x="93.927086"
       y="7.4083333" />
    <g
       style="fill:#000000"
       id="g2168"
       transform="matrix(0.44097222,0,0,0.44097222,96.043755,9.525)">
      <path
         d="M 0,0 H 24 V 24 H 0 Z"
         fill="none"
         id="path2156" />
      <path
         d="m 17.199991,8 c 1.1,0 2,-0.9 2,-2 0,-1.1 -0.9,-2 -2,-2 -1.1,0 -2,0.9 -2,2 0,1.1 0.9,2 2,2 z m 0,2 c -1.1,0 -2,0.9 -2,2 0,1.1 0.9,2 2,2 1.1,0 2,-0.9 2,-2 0,-1.1 -0.9,-2 -2,-2 z m 0,6 c -1.1,0 -2,0.9 -2,2 0,1.1 0.9,2 2,2 1.1,0 2,-0.9 2,-2 0,-1.1 -0.9,-2 -2,-2 z"
         id="path2158"
         style="fill:#ffffff" />
    </g>
    <rect
       style="fill:#101010;fill-opacity:1;stroke:none;stroke-width:1.96701;stroke-linecap:round"
       id="rect171375"
       width="108.74375"
       height="7.4083328"
       x="0"
       y="1.5894572e-07" />
    <text
       xml:space="preserve"
       style="font-style:normal;font-variant:normal;font-weight:normal;font-stretch:normal;font-size:4.54157px;line-height:1.25;font-family:Roboto;-inkscape-font-specification:Roboto;fill:#ffffff;fill-opacity:1;stroke:none;stroke-width:0.264583"
       x="-114.70139"
       y="27.295296"
       id="text23520-6"><tspan
         sodipodi:role="line"
         id="tspan23518-2"
         style="font-style:normal;font-variant:normal;font-weight:normal;font-stretch:normal;font-size:4.54157px;font-family:Roboto;-inkscape-font-specification:Roboto;fill:#ffffff;stroke-width:0.264583"
         x="-114.70139"
         y="27.295296">GoogleTranslate</tspan></text>
    <text
       xml:space="preserve"
       style="font-style:normal;font-variant:normal;font-weight:normal;font-stretch:normal;font-size:4.54157px;line-height:1.25;font-family:Roboto;-inkscape-font-specification:Roboto;fill:#ffffff;fill-opacity:1;stroke:none;stroke-width:0.264583"
       x="-58.128582"
       y="27.295294"
       id="text25040-1"><tspan
         sodipodi:role="line"
         id="tspan25038-2"
         style="font-style:normal;font-variant:normal;font-weight:normal;font-stretch:normal;font-size:4.54157px;font-family:Roboto;-inkscape-font-specification:Roboto;fill:#ffffff;stroke-width:0.264583"
         x="-58.128582"
         y="27.295294">LibreTranslate</tspan></text>
    <text
       xml:space="preserve"
       style="font-style:normal;font-variant:normal;font-weight:normal;font-stretch:normal;font-size:4.54157px;line-height:1.25;font-family:Roboto;-inkscape-font-specification:Roboto;fill:#ffffff;fill-opacity:1;stroke:none;stroke-width:0.264583"
       x="10.468835"
       y="27.367952"
       id="text23520"><tspan
         sodipodi:role="line"
         id="tspan23518"
         style="font-style:normal;font-variant:normal;font-weight:normal;font-stretch:normal;font-size:4.54157px;font-family:Roboto;-inkscape-font-specification:Roboto;fill:#ffffff;stroke-width:0.264583;fill-opacity:1"
         x="10.468835"
         y="27.367952">GoogleTranslate</tspan></text>
    <text
       xml:space="preserve"
       style="font-style:normal;font-variant:normal;font-weight:normal;font-stretch:normal;font-size:4.54157px;line-height:1.25;font-family:Roboto;-inkscape-font-specification:Roboto;fill:#414141;fill-opacity:1;stroke:none;stroke-width:0.264583"
       x="67.041641"
       y="27.36795"
       id="text25040"><tspan
         sodipodi:role="line"
         id="tspan25038"
         style="font-style:normal;font-variant:normal;font-weight:normal;font-stretch:normal;font-size:4.54157px;font-family:Roboto;-inkscape-font-specification:Roboto;fill:#414141;stroke-width:0.264583;fill-opacity:1"
         x="67.041641"
         y="27.36795">LibreTranslate</tspan></text>
    <rect
       style="fill:#808000;fill-opacity:1;stroke:none;stroke-width:3.96898;stroke-linecap:round"
       id="rect24980-0"
       width="54.371876"
       height="7.9375"
       x="-120.35609"
       y="-18.935843" />
    <rect
       style="fill:#ffffff;fill-opacity:1;stroke:none;stroke-width:0.10546;stroke-linecap:round;stroke-miterlimit:4;stroke-dasharray:none;stroke-opacity:1"
       id="rect115132"
       width="54.371876"
       height="0.52916664"
       x="-2.7020772e-06"
       y="29.633333" />
    <rect
       style="fill:#131618;fill-opacity:1;stroke:none;stroke-width:9.50348;stroke-linecap:round;filter:url(#filter115572)"
       id="rect70119"
       width="108.74375"
       height="22.754169"
       x="-129.65245"
       y="70.083038" />
    <rect
       style="fill:#212529;fill-opacity:1;stroke:none;stroke-width:3.96899;stroke-linecap:round"
       id="rect70121"
       width="108.74375"
       height="150.54791"
       x="-198.68817"
       y="109.4881" />
  </g>
</svg>
