<?xml version="1.0" encoding="UTF-8" standalone="no"?>
<!-- Created with Inkscape (http://www.inkscape.org/) -->

<svg
   width="1199.9999"
   height="600"
   viewBox="0 0 1199.9999 599.99998"
   version="1.1"
   id="svg5"
   inkscape:version="1.1.1 (1:1.1+202109281949+c3084ef5ed)"
   sodipodi:docname="preview.svg"
   inkscape:export-filename="/mnt/Main_Storage/Git/simplytranslate_mobile/docs/img/preview.png"
   inkscape:export-xdpi="96"
   inkscape:export-ydpi="96"
   xmlns:inkscape="http://www.inkscape.org/namespaces/inkscape"
   xmlns:sodipodi="http://sodipodi.sourceforge.net/DTD/sodipodi-0.dtd"
   xmlns="http://www.w3.org/2000/svg"
   xmlns:svg="http://www.w3.org/2000/svg">
  <sodipodi:namedview
     id="namedview7"
     pagecolor="#505050"
     bordercolor="#eeeeee"
     borderopacity="1"
     inkscape:pageshadow="0"
     inkscape:pageopacity="0"
     inkscape:pagecheckerboard="0"
     inkscape:document-units="px"
     showgrid="false"
     units="px"
     showguides="false"
     inkscape:zoom="0.70710674"
     inkscape:cx="359.21027"
     inkscape:cy="402.34378"
     inkscape:window-width="1888"
     inkscape:window-height="1060"
     inkscape:window-x="32"
     inkscape:window-y="0"
     inkscape:window-maximized="1"
     inkscape:current-layer="g846" />
  <defs
     id="defs2">
    <inkscape:path-effect
       effect="fillet_chamfer"
       id="path-effect35261"
       is_visible="true"
       lpeversion="1"
       satellites_param="F,0,0,1,0,0,0,1 @ F,0,0,1,0,0,0,1 @ F,0,0,1,0,0,0,1 @ F,0,0,1,0,0,0,1 @ F,0,0,1,0,0,0,1 @ F,0,0,1,0,0,0,1 @ F,0,0,1,0,0,0,1 @ F,0,0,1,0,0,0,1 @ F,0,0,1,0,0,0,1 @ F,0,0,1,0,0,0,1 @ F,0,0,1,0,0,0,1 @ F,0,0,1,0,0,0,1 @ F,0,0,1,0,0,0,1 @ F,0,0,1,0,0,0,1 @ F,0,0,1,0,0,0,1 @ F,0,0,1,0,0,0,1 @ F,0,0,1,0,0,0,1 @ F,0,0,1,0,0,0,1 @ F,0,0,1,0,0,0,1 @ F,0,0,1,0,0,0,1 @ F,0,0,1,0,0,0,1 @ F,0,0,1,0,0,0,1 @ F,0,0,1,0,0,0,1 @ F,0,0,1,0,0,0,1 @ F,0,0,1,0,0,0,1 @ F,0,0,1,0,0,0,1 @ F,0,0,1,0,0,0,1 @ F,0,0,1,0,0,0,1"
       unit="px"
       method="auto"
       mode="F"
       radius="1"
       chamfer_steps="1"
       flexible="false"
       use_knot_distance="true"
       apply_no_radius="true"
       apply_with_radius="true"
       only_selected="false"
       hide_knots="false" />
    <style
       id="style967">.a{fill:none;stroke:#fff;stroke-linecap:round;stroke-linejoin:round;}</style>
  </defs>
  <g
     inkscape:label="Layer 1"
     inkscape:groupmode="layer"
     id="layer1"
     transform="translate(-6.6601097,-6.6601097)">
    <rect
       style="fill:#478061;fill-opacity:1;stroke:#000000;stroke-width:0.110068;stroke-linecap:round;stroke-miterlimit:4;stroke-dasharray:none;stroke-opacity:0.997817;paint-order:stroke markers fill"
       id="rect2448"
       width="1199.8898"
       height="599.88995"
       x="6.7151437"
       y="6.7151437"
       rx="1.8478793"
       ry="1.475139" />
    <g
       id="g846"
       transform="matrix(13.974615,0,0,13.974615,-63.168351,98.747897)">
      <path
         style="opacity:0.273;fill:#000000;fill-opacity:1;stroke:#000000;stroke-width:0.386;stroke-linecap:butt;stroke-linejoin:miter;stroke-miterlimit:4;stroke-dasharray:none;stroke-opacity:1"
         d="m 54.114115,2.802803 c -1.5363,-1.588302 -3.5161,-2.3826232 -5.9375,-2.3828132 l -1.4e-5,-2.02e-4 c -2.3698,0 -4.303381,0.6835812 -5.800781,2.0507812 -1.4974,1.3672 -2.246094,3.138 -2.246094,5.3124994 0,2.089157 0.687318,3.7909256 2.060547,5.1054626 4.409404,4.40476 7.838473,7.836729 11.623047,11.623047 0.0064,0.0066 0.01306,0.01296 0.01953,0.01953 -0.272715,0.603124 -0.665046,1.134975 -1.183594,1.591797 -0.987429,0.880344 -2.277941,1.353701 -3.863281,1.429688 -0.0097,-0.0094 -0.03885,-0.03921 -0.05273,-0.05273 h 0.0078 c -2.021701,-2.007798 -4.202345,-4.200475 -6.126497,-6.119141 -0.01191,-0.03097 -0.10444,-0.107252 -0.144544,-0.148437 -0.0019,-0.0019 -0.952652,-0.929914 -0.982422,-0.958984 l -0.002,-0.002 c 0,0 -0.954475,-0.929885 -0.984375,-0.958985 l -0.002,-0.002 -0.986328,0.960938 -0.986328,0.960937 0.910157,0.882814 c 0.197488,1.254754 0.544639,2.6009 1.103515,3.558595 0.328886,0.53724 0.711782,1.019763 1.144532,1.453125 7.4298,7.420944 52.490645,52.489121 52.490645,52.489121 h 18.38281 V 61.494752 c 0,0 -49.653605,-49.909911 -58.444095,-58.691949 z"
         id="path1283"
         sodipodi:nodetypes="cccsscccccccccccccccccccccc" />
    </g>
    <text
       xml:space="preserve"
       style="font-style:normal;font-weight:normal;font-size:25px;line-height:1.25;font-family:sans-serif;fill:#000000;fill-opacity:1;stroke:none;stroke-width:0.625"
       x="16.864532"
       y="11.011916"
       id="text6936"><tspan
         sodipodi:role="line"
         id="tspan6934"
         x="16.864532"
         y="11.011916"
         style="stroke-width:0.625" /></text>
    <g
       id="g15133"
       transform="matrix(8.9818194,0,0,8.9818194,57.406071,-663.41019)">
      <polyline
         class="st0"
         points="63.8,101 61.2,93 58.5,101   "
         id="polyline15129" />
      <line
         class="st0"
         x1="59.400002"
         y1="98.300003"
         x2="62.900002"
         y2="98.300003"
         id="line15131" />
    </g>
    <g
       id="path33996"
       transform="matrix(0.62499987,0,0,0.62499987,2.497542,2.497542)" />
    <g
       id="path34177"
       transform="matrix(0.62499987,0,0,0.62499987,2.497542,2.497542)" />
    <path
       id="path35934"
       style="fill:#ffffff;stroke:#ffffff;stroke-width:5.39823;stroke-linecap:round;stroke-linejoin:round"
       inkscape:transform-center-y="4.4768399"
       d="m 736.5932,219.68696 h -55.17967 c 9.19656,8.95368 18.39318,17.90734 27.58987,26.86101 9.19656,-8.95367 18.39318,-17.90733 27.5898,-26.86101 z M 529.74305,393.40431 H 474.56333 L 502.1532,366.5433 Z m 165.26529,14.31554 c 0,-22.21493 -6.37319,-39.69553 -19.11944,-52.44181 -12.56418,-12.74628 -36.1448,-24.94628 -70.74182,-36.60002 -34.59703,-11.65373 -59.99854,-24.67315 -76.20453,-39.05823 -21.30447,-18.75524 -31.95672,-43.51942 -31.95672,-74.29257 0,-30.40897 10.47015,-55.17317 31.41046,-74.29258 20.94032,-19.11941 47.98063,-28.67911 81.12093,-28.67911 33.86869,0 61.54631,11.10746 83.03287,33.3224 21.48662,22.21493 32.22993,50.80301 32.22993,85.76422 h -31.41049 c 0,-26.76719 -7.55675,-48.34479 -22.67012,-64.73287 -14.93138,-16.57016 -35.3255,-24.85523 -61.18219,-24.85523 -25.12837,0 -44.97612,6.82836 -59.5433,20.48509 -14.38509,13.47462 -21.57763,30.95523 -21.57763,52.44182 0,20.02985 6.82836,36.41791 20.48509,49.1642 13.65672,12.74626 35.41642,24.12687 65.27913,34.14181 29.86271,9.83283 52.44183,20.1209 67.73739,30.86418 15.2955,10.56121 26.58506,23.03435 33.86862,37.41942 7.28362,14.38509 10.92544,31.31944 10.92544,50.80302 0,31.13734 -10.56125,56.26571 -31.68362,75.38512 -20.94031,18.93732 -48.70899,28.40598 -83.30604,28.40598 -23.30748,0 -44.61196,-4.73433 -63.91345,-14.20299 -19.11943,-9.65075 -34.14182,-23.39852 -45.0672,-41.24331 -10.74329,-18.02688 -16.11493,-39.24032 -16.11493,-63.64033 h 31.13731 c 0,28.0418 8.46717,50.07465 25.40151,66.09854 16.93435,16.02388 39.78661,24.03583 68.55676,24.03583 25.12836,0 45.2493,-6.73732 60.36273,-20.21195 15.2955,-13.47462 22.94331,-31.50151 22.94331,-54.08063 z"
       sodipodi:nodetypes="ccccccccscscsssscccscssccsscsccccsscs"
       inkscape:transform-center-x="-1.5110182e-06" />
    <g
       id="g17153"
       transform="matrix(8.9818194,0,0,8.9818194,393.38595,90.6284)">
      <path
         style="fill:none;stroke:#ffffff;stroke-width:1px;stroke-linecap:round;stroke-linejoin:miter;stroke-opacity:1"
         d="m 19.792122,31.555225 h 7.904173"
         id="path16798" />
      <path
         style="fill:none;stroke:#ffffff;stroke-width:1px;stroke-linecap:round;stroke-linejoin:miter;stroke-opacity:1"
         d="m 26.1674,31.596349 c 0,0 -0.879776,4.573392 -5.113091,6.866763"
         id="path16866" />
      <path
         style="fill:none;stroke:#ffffff;stroke-width:1px;stroke-linecap:round;stroke-linejoin:miter;stroke-opacity:1"
         d="M 26.262905,38.481686 C 25.267597,38.031795 22.0344,34.63603 21.648922,33.22501"
         id="path16901"
         sodipodi:nodetypes="cc" />
      <path
         style="fill:none;stroke:#ffffff;stroke-width:1px;stroke-linecap:round;stroke-linejoin:miter;stroke-opacity:1"
         d="M 23.663218,31.460063 V 30.433904"
         id="path16936" />
    </g>
  </g>
  <style
     type="text/css"
     id="style14976">
	.st0{fill:none;stroke:#FFFFFF;stroke-linecap:round;stroke-linejoin:round;stroke-miterlimit:10;}
	.st1{fill:#FFFFFF;}
	.st2{fill:none;stroke:#FFFFFF;stroke-width:0.9976;stroke-linecap:round;stroke-linejoin:round;stroke-miterlimit:10;}
	.st3{fill:none;stroke:#FFFFFF;stroke-width:0.9965;stroke-linecap:round;stroke-linejoin:round;stroke-miterlimit:10;}
	.st4{fill:none;stroke:#FFFFFF;stroke-width:0.8662;stroke-linecap:round;stroke-linejoin:round;stroke-miterlimit:10;}
</style>
  <style
     type="text/css"
     id="style44917">
	.st0{fill:none;stroke:#FFFFFF;stroke-linecap:round;stroke-linejoin:round;stroke-miterlimit:10;}
	.st1{fill:#FFFFFF;}
	.st2{fill:none;stroke:#FFFFFF;stroke-width:0.9976;stroke-linecap:round;stroke-linejoin:round;stroke-miterlimit:10;}
	.st3{fill:none;stroke:#FFFFFF;stroke-width:0.9965;stroke-linecap:round;stroke-linejoin:round;stroke-miterlimit:10;}
	.st4{fill:none;stroke:#FFFFFF;stroke-width:0.8662;stroke-linecap:round;stroke-linejoin:round;stroke-miterlimit:10;}
</style>
</svg>
