<?xml version="1.0" encoding="UTF-8" standalone="no"?>
<!-- Created with Inkscape (http://www.inkscape.org/) -->
<svg version="1.1" id="svg2" xml:space="preserve" width="99.521194" height="30.000002" viewBox="0 0 99.521193 30.000001" sodipodi:docname="github.svg" inkscape:version="1.1.1 (1:1.1+202109281949+c3084ef5ed)" xmlns:inkscape="http://www.inkscape.org/namespaces/inkscape" xmlns:sodipodi="http://sodipodi.sourceforge.net/DTD/sodipodi-0.dtd" xmlns="http://www.w3.org/2000/svg" xmlns:svg="http://www.w3.org/2000/svg"><defs id="defs6"/><sodipodi:namedview id="namedview4" pagecolor="#505050" bordercolor="#ffffff" borderopacity="1" inkscape:pageshadow="0" inkscape:pageopacity="0" inkscape:pagecheckerboard="1" showgrid="false" inkscape:zoom="7.8385686" inkscape:cx="42.864969" inkscape:cy="31.829791" inkscape:window-width="1888" inkscape:window-height="1060" inkscape:window-x="32" inkscape:window-y="0" inkscape:window-maximized="1" inkscape:current-layer="g10"/><g id="g8" inkscape:groupmode="layer" inkscape:label="ink_ext_XXXXXX" transform="matrix(1.3333333,0,0,-1.3333333,-317.19456,585.76756)"><g id="g10" transform="scale(0.1)"><rect style="fill:#ffffff;stroke:#404040;stroke-width:15;stroke-linecap:round;paint-order:stroke markers fill" id="rect851" width="731.409" height="210.00002" x="2386.4592" y="-4385.7568" transform="scale(1,-1)" rx="22.499998" ry="22.5"/><path d="m 2719.7493,4289.5802 h -38.0797 c -0.9827,0 -1.779,-0.7978 -1.779,-1.7816 v -18.6164 c 0,-0.9827 0.7963,-1.7827 1.779,-1.7827 h 14.8547 v -23.1307 c 0,0 -3.3354,-1.1373 -12.5573,-1.1373 -10.8791,0 -26.0773,3.9757 -26.0773,37.3964 0,33.426 15.8261,37.8243 30.6832,37.8243 12.8619,0 18.4014,-2.2634 21.9279,-3.3541 1.1084,-0.3397 2.1326,0.7624 2.1326,1.7463 l 4.2473,17.9886 c 0,0.4593 -0.156,1.0141 -0.6793,1.3902 -1.4318,1.0204 -10.1669,5.9082 -32.2344,5.9082 -25.4205,0 -51.4976,-10.8148 -51.4976,-62.8081 0,-51.9933 29.8553,-59.7408 55.014,-59.7408 20.8308,0 33.4674,8.9012 33.4674,8.9012 0.5208,0.2881 0.5775,1.0153 0.5775,1.35 v 58.0649 c 0,0.9838 -0.7965,1.7816 -1.779,1.7816" style="fill:#161312;fill-opacity:1;fill-rule:nonzero;stroke:none;stroke-width:1" id="path28"/><path d="m 2915.9967,4335.8024 c 0,0.9902 -0.7851,1.7904 -1.7689,1.7904 h -21.441 c -0.9788,0 -1.7752,-0.8002 -1.7752,-1.7904 0,-0.01 0.011,-41.4363 0.011,-41.4363 h -33.4222 v 41.4363 c 0,0.9902 -0.7876,1.7904 -1.7688,1.7904 h -21.4398 c -0.9751,0 -1.7714,-0.8002 -1.7714,-1.7904 v -112.1971 c 0,-0.9901 0.7963,-1.7953 1.7714,-1.7953 h 21.4398 c 0.9812,0 1.7688,0.8052 1.7688,1.7953 v 47.99 h 33.4222 c 0,0 -0.06,-47.9863 -0.06,-47.99 0,-0.9901 0.7951,-1.7953 1.7765,-1.7953 h 21.4913 c 0.9825,0 1.7677,0.8052 1.7702,1.7953 v 112.1971" style="fill:#161312;fill-opacity:1;fill-rule:nonzero;stroke:none;stroke-width:1" id="path30"/><path d="m 2760.2094,4321.0798 c 0,7.7199 -6.1888,13.959 -13.8256,13.959 -7.6293,0 -13.8243,-6.2391 -13.8243,-13.959 0,-7.7135 6.195,-13.9689 13.8243,-13.9689 7.6368,0 13.8256,6.2554 13.8256,13.9689" style="fill:#161312;fill-opacity:1;fill-rule:nonzero;stroke:none;stroke-width:1" id="path32"/><path d="m 2758.6769,4247.272 c 0,2.876 0,51.7906 0,51.7906 0,0.9839 -0.7939,1.7878 -1.7739,1.7878 h -21.3743 c -0.9801,0 -1.857,-1.0116 -1.857,-1.9941 0,0 0,-62.3212 0,-74.2004 0,-2.1803 1.3587,-2.8295 3.1163,-2.8295 0,0 9.1239,0 19.2569,0 2.1137,0 2.632,1.0379 2.632,2.8647 0,3.9769 0,19.5576 0,22.5809" style="fill:#161312;fill-opacity:1;fill-rule:nonzero;stroke:none;stroke-width:1" id="path34"/><path d="m 2997.4816,4300.6819 h -21.2761 c -0.975,0 -1.7701,-0.8052 -1.7701,-1.7941 v -55.0141 c 0,0 -5.4062,-3.9543 -13.0782,-3.9543 -7.6709,0 -9.7065,3.4812 -9.7065,10.9936 0,7.521 0,47.9748 0,47.9748 0,0.9889 -0.7926,1.7941 -1.7702,1.7941 h -21.5943 c -0.9739,0 -1.7728,-0.8052 -1.7728,-1.7941 0,0 0,-29.2967 0,-51.6084 0,-22.3128 12.4352,-27.7705 29.542,-27.7705 14.0356,0 25.3511,7.7525 25.3511,7.7525 0,0 0.5386,-4.0864 0.7827,-4.5707 0.2428,-0.4832 0.8782,-0.9713 1.5651,-0.9713 l 13.7374,0.062 c 0.9739,0 1.7728,0.8052 1.7728,1.7903 l -0.011,75.3165 c 0,0.9888 -0.7939,1.794 -1.7753,1.794" style="fill:#161312;fill-opacity:1;fill-rule:nonzero;stroke:none;stroke-width:1" id="path36"/><path d="m 3047.243,4239.9873 c -7.3801,0.224 -12.3862,3.5731 -12.3862,3.5731 v 35.5308 c 0,0 4.9382,3.0271 10.9973,3.568 7.662,0.6857 15.0446,-1.628 15.0446,-19.9061 0,-19.2732 -3.3315,-23.0778 -13.6557,-22.7658 z m 8.3917,63.2146 c -12.0842,0 -20.3035,-5.3923 -20.3035,-5.3923 v 37.9928 c 0,0.9902 -0.7926,1.7904 -1.7691,1.7904 h -21.5025 c -0.9776,0 -1.7715,-0.8002 -1.7715,-1.7904 v -112.1971 c 0,-0.9901 0.7939,-1.7953 1.7739,-1.7953 0,0 14.9139,0 14.9189,0 0.6719,0 1.1802,0.346 1.5563,0.9524 0.3712,0.6039 0.9059,5.1734 0.9059,5.1734 0,0 8.7917,-8.3312 25.4356,-8.3312 19.5411,0 30.7472,9.9101 30.7472,44.4935 0,34.5846 -17.8981,39.1038 -29.9912,39.1038" style="fill:#161312;fill-opacity:1;fill-rule:nonzero;stroke:none;stroke-width:1" id="path38"/><path d="m 2820.2999,4300.8605 h -16.0839 c 0,0 -0.024,21.2435 -0.024,21.2472 0,0.8053 -0.4152,1.2066 -1.345,1.2066 h -21.9166 c -0.8529,0 -1.3096,-0.3749 -1.3096,-1.194 v -21.9568 c 0,0 -10.9834,-2.6509 -11.7269,-2.866 -0.7386,-0.214 -1.2834,-0.8958 -1.2834,-1.7098 v -13.7978 c 0,-0.9927 0.7927,-1.7929 1.7728,-1.7929 h 11.2375 c 0,0 0,-14.432 0,-33.1944 0,-24.6554 17.2942,-27.0773 28.9634,-27.0773 5.3331,0 11.7118,1.7123 12.7648,2.1011 0.6367,0.234 1.0066,0.8944 1.0066,1.6091 l 0.019,15.1793 c 0,0.9888 -0.8367,1.7903 -1.7778,1.7903 -0.9384,0 -3.3353,-0.3812 -5.8037,-0.3812 -7.901,0 -10.5771,3.6724 -10.5771,8.4282 0,4.7507 0,31.5449 0,31.5449 h 16.0852 c 0.9801,0 1.774,0.8002 1.774,1.7929 v 17.2828 c 0,0.9901 -0.7939,1.7878 -1.774,1.7878" style="fill:#161312;fill-opacity:1;fill-rule:nonzero;stroke:none;stroke-width:1" id="path40"/><path d="m 2508.6773,4368.5197 c -49.6833,0 -89.9757,-40.2869 -89.9757,-89.9867 0,-39.751 25.7807,-73.4808 61.5379,-85.3852 4.5021,-0.8231 6.1427,1.9555 6.1427,4.342 0,2.1377 -0.077,7.7944 -0.1215,15.3015 -25.0294,-5.4356 -30.3104,12.0646 -30.3104,12.0646 -4.0933,10.3962 -9.9929,13.1637 -9.9929,13.1637 -8.1702,5.5793 0.6186,5.4689 0.6186,5.4689 9.0319,-0.6353 13.7825,-9.2749 13.7825,-9.2749 8.0265,-13.7494 21.0632,-9.7776 26.1896,-7.474 0.8175,5.8112 3.1431,9.7775 5.7118,12.0258 -19.9805,2.2759 -40.9884,9.9929 -40.9884,44.4741 0,9.8273 3.5077,17.8537 9.2638,24.1456 -0.928,2.2759 -4.016,11.4237 0.8838,23.8142 0,0 7.5513,2.4194 24.7422,-9.2197 7.1757,1.9941 14.8763,2.9885 22.527,3.0271 7.6453,-0.039 15.3403,-1.033 22.5272,-3.0271 17.1797,11.6391 24.72,9.2197 24.72,9.2197 4.9109,-12.3905 1.823,-21.5383 0.9004,-23.8142 5.7671,-6.2919 9.2473,-14.3183 9.2473,-24.1456 0,-34.5695 -21.0411,-42.1761 -41.0823,-44.4023 3.226,-2.7786 6.104,-8.2695 6.104,-16.666 0,-12.0259 -0.1105,-21.7316 -0.1105,-24.6814 0,-2.4086 1.6241,-5.2092 6.1869,-4.3309 35.7296,11.9264 61.4882,45.6286 61.4882,85.3741 0,49.6998 -40.2924,89.9867 -89.9922,89.9867" style="fill:#1b1817;fill-opacity:1;fill-rule:evenodd;stroke:none;stroke-width:0.999993" id="path14"/></g></g></svg>